<svg id="Layer_1" data-name="Layer 1" xmlns="http://www.w3.org/2000/svg" viewBox="0 0 731.25 132.2"><defs><style>.cls-1{fill:#8b1b1b;}.cls-2{fill:#2e2e38;}</style></defs><title>CODW WORD GUN METAL VECTOR</title><path class="cls-1" d="M1898.52,1765.51c0-30.76,17.25-50.34,42.22-50.34,19.31,0,25.23,11.7,28.58,16.78h1.29v-48h15.18v130.16h-14.67v-15h-1.8c-3.35,5.34-9.78,17-28.83,17C1915.77,1816.1,1898.52,1796.52,1898.52,1765.51Zm72.34-.26c0-21.86-9.78-36.6-28.32-36.6-19.3,0-28.83,16-28.83,36.6,0,20.85,9.78,37.37,28.83,37.37C1960.82,1802.62,1970.86,1787.37,1970.86,1765.25Z" transform="translate(-1384.37 -1683.9)"/><path class="cls-1" d="M2099.66,1716.82l-21.37,74.49h-1l-20.84-74.49h-16.23l-21.11,74.74h-1l-21.36-74.74h-.07v53.46q7,22.46,14.23,44.17h14.93l21.62-75h1.54l21.63,75h14.93l30.13-97.63Z" transform="translate(-1384.37 -1683.9)"/><path class="cls-2" d="M1384.37,1780.69c0-20.64,12.33-35,31.38-35,15.36,0,26.49,9.06,27.9,22.7h-12.8c-1.41-6.33-6.52-11.61-14.88-11.61-11,0-18.31,9.11-18.31,23.58,0,14.74,7.18,24,18.31,24,7.53,0,13.2-4.31,14.88-11.62h12.8c-1.45,13.16-11.79,22.75-27.77,22.75C1396.26,1815.54,1384.37,1801.07,1384.37,1780.69Z" transform="translate(-1384.37 -1683.9)"/><path class="cls-2" d="M1454.78,1780.82c0-20.77,12.42-35.11,31.25-35.11,15.31,0,29.92,9.54,29.92,34v4.66h-48c.35,13,7.92,20.34,19.19,20.34,7.48,0,13.2-3.26,15.57-9.64l12.46,2.24c-3,11-13.42,18.26-28.17,18.26C1467,1815.54,1454.78,1801.81,1454.78,1780.82Zm48.28-6.34c0-10.34-6.73-17.91-16.94-17.91-10.69,0-17.65,8.32-18.18,17.91Z" transform="translate(-1384.37 -1683.9)"/><path class="cls-2" d="M1543.81,1814.18h-13.16v-90.13h13.16Z" transform="translate(-1384.37 -1683.9)"/><path class="cls-2" d="M1574.68,1814.18h-13.16v-90.13h13.16Z" transform="translate(-1384.37 -1683.9)"/><path class="cls-2" d="M1589.22,1795.08c0-15.36,13.11-18.7,25.92-20.2,12.14-1.41,17.07-1.32,17.07-6.11v-.31c0-7.66-4.35-12.1-12.85-12.1-8.84,0-13.77,4.62-15.71,9.41l-12.36-2.81c4.4-12.33,15.66-17.25,27.9-17.25,10.74,0,26.22,3.91,26.22,23.58v44.89h-12.84v-9.24H1632c-2.51,5.06-8.8,10.74-20,10.74C1599.21,1815.68,1589.22,1808.37,1589.22,1795.08Zm43-5.28v-8.71c-1.89,1.89-12,3-16.28,3.61-7.62,1-13.87,3.51-13.87,10.56,0,6.51,5.37,9.85,12.81,9.85C1625.88,1805.11,1632.26,1797.81,1632.26,1789.8Z" transform="translate(-1384.37 -1683.9)"/><path class="cls-2" d="M1663,1746.59h12.72v10.73h.7c2.47-7.26,9.16-11.75,17.17-11.75a15.55,15.55,0,0,1,8.84,2.47l-4.22,11a13.48,13.48,0,0,0-6.12-1.32c-9.11,0-15.93,6.38-15.93,15.18v41.28H1663Z" transform="translate(-1384.37 -1683.9)"/><path class="cls-2" d="M1751.11,1765.2c-1.54-4.53-5.33-9.06-13.51-9.06-7.49,0-13.12,3.69-13.07,8.88,0,4.58,3.17,7.09,10.6,8.85l10.74,2.47c12.41,2.86,18.48,8.75,18.48,18.3,0,12.23-11.31,20.9-27.64,20.9-15.18,0-25.12-6.73-27.32-18.7l12.72-1.93c1.58,6.64,6.64,10,14.52,10,8.62,0,14.21-4.09,14.21-9.33,0-4.23-3-7.13-9.55-8.58l-11.44-2.51c-12.67-2.82-18.48-9.2-18.48-18.79,0-12,10.83-20,26.09-20,14.61,0,22.84,6.86,25.57,17.38Z" transform="translate(-1384.37 -1683.9)"/><path class="cls-2" d="M1775.79,1780.69c0-21,12.45-35,31.51-35s31.5,14,31.5,35-12.45,34.85-31.5,34.85S1775.79,1801.59,1775.79,1780.69Zm49.73,0c0-12.94-5.81-23.94-18.18-23.94s-18.26,11-18.26,23.94,5.81,23.85,18.26,23.85S1825.52,1793.63,1825.52,1780.65Z" transform="translate(-1384.37 -1683.9)"/><path class="cls-2" d="M1885.9,1757.15h-14.57v57h-13.2v-57H1847.7v-10.56h10.43v-7.84c0-12.67,9.37-18.92,20.07-18.92a31.72,31.72,0,0,1,11,1.8l-3.08,10.65a18.27,18.27,0,0,0-5.9-1c-6.42,0-8.89,3.26-8.89,9.24v6.08h14.57Z" transform="translate(-1384.37 -1683.9)"/></svg>