<svg id="Layer_1" data-name="Layer 1" xmlns="http://www.w3.org/2000/svg" viewBox="0 0 217.1 132.2"><title>CODW DW BLACK VECTOR</title><path d="M1904.81,1631.86c0-30.76,17.24-50.34,42.22-50.34,19.3,0,25.22,11.7,28.57,16.78h1.29v-48h15.19v130.17H1977.4v-15h-1.8c-3.35,5.34-9.78,17-28.83,17C1922.05,1682.45,1904.81,1662.87,1904.81,1631.86Zm72.34-.25c0-21.87-9.79-36.61-28.32-36.61-19.31,0-28.84,16-28.84,36.61,0,20.84,9.79,37.37,28.84,37.37C1967.11,1669,1977.15,1653.72,1977.15,1631.61Z" transform="translate(-1904.81 -1550.25)"/><path d="M2105.94,1583.18l-21.37,74.49h-1l-20.84-74.49h-16.23l-21.11,74.73h-1L2003,1583.18h-.06v53.45q7,22.45,14.22,44.17h14.93l21.63-75h1.54l21.62,75h14.93l30.13-97.62Z" transform="translate(-1904.81 -1550.25)"/></svg>