<svg id="Layer_1" data-name="Layer 1" xmlns="http://www.w3.org/2000/svg" viewBox="0 0 731.25 827.24"><title>CODW FULL LOGO BLACK VECTOR</title><path d="M1898.65,2108c0-30.76,17.25-50.34,42.22-50.34,19.31,0,25.23,11.7,28.57,16.78h1.29v-48h15.19v130.17h-14.67v-15h-1.81c-3.34,5.34-9.78,17-28.83,17C1915.9,2158.61,1898.65,2139,1898.65,2108Zm72.34-.25c0-21.87-9.79-36.61-28.32-36.61-19.31,0-28.83,16-28.83,36.61,0,20.84,9.78,37.37,28.83,37.37C1961,2145.14,1971,2129.88,1971,2107.77Z" transform="translate(-1384.5 -1331.37)"/><path d="M2099.79,2059.34l-21.38,74.49h-1l-20.84-74.49h-16.22l-21.12,74.73h-1l-21.36-74.73h-.06v53.45q7,22.46,14.22,44.17h14.94l21.62-75h1.54l21.62,75h14.93l30.13-97.62Z" transform="translate(-1384.5 -1331.37)"/><path d="M1384.5,2123.2c0-20.64,12.32-35,31.37-35,15.36,0,26.5,9.06,27.91,22.71H1431c-1.41-6.34-6.51-11.62-14.87-11.62-11,0-18.31,9.11-18.31,23.58,0,14.75,7.17,24,18.31,24,7.52,0,13.2-4.31,14.87-11.62h12.81c-1.46,13.16-11.8,22.75-27.77,22.75C1396.38,2158.05,1384.5,2143.58,1384.5,2123.2Z" transform="translate(-1384.5 -1331.37)"/><path d="M1454.91,2123.34c0-20.78,12.41-35.12,31.25-35.12,15.31,0,29.92,9.55,29.92,34v4.67H1468c.35,13,7.92,20.33,19.19,20.33,7.48,0,13.2-3.26,15.58-9.64l12.45,2.24c-3,11-13.42,18.26-28.16,18.26C1467.14,2158.05,1454.91,2144.32,1454.91,2123.34Zm48.27-6.34c0-10.34-6.73-17.91-16.94-17.91-10.69,0-17.64,8.31-18.17,17.91Z" transform="translate(-1384.5 -1331.37)"/><path d="M1543.94,2156.69h-13.16v-90.12h13.16Z" transform="translate(-1384.5 -1331.37)"/><path d="M1574.8,2156.69h-13.16v-90.12h13.16Z" transform="translate(-1384.5 -1331.37)"/><path d="M1589.34,2137.59c0-15.36,13.12-18.7,25.92-20.2,12.15-1.41,17.08-1.32,17.08-6.11V2111c0-7.66-4.36-12.1-12.85-12.1-8.85,0-13.78,4.62-15.71,9.42l-12.37-2.82c4.4-12.33,15.67-17.25,27.9-17.25,10.74,0,26.23,3.91,26.23,23.58v44.89h-12.85v-9.24h-.53c-2.5,5.06-8.8,10.74-20,10.74C1599.34,2158.19,1589.34,2150.88,1589.34,2137.59Zm43-5.28v-8.71c-1.89,1.89-12,3-16.28,3.61-7.61,1-13.86,3.52-13.86,10.56,0,6.51,5.37,9.86,12.8,9.86C1626,2147.63,1632.38,2140.32,1632.38,2132.31Z" transform="translate(-1384.5 -1331.37)"/><path d="M1663.1,2089.1h12.72v10.74h.7c2.46-7.27,9.15-11.75,17.16-11.75a15.59,15.59,0,0,1,8.85,2.46l-4.23,11a13.4,13.4,0,0,0-6.11-1.32c-9.11,0-15.93,6.38-15.93,15.18v41.28H1663.1Z" transform="translate(-1384.5 -1331.37)"/><path d="M1751.23,2107.71c-1.54-4.53-5.32-9.06-13.51-9.06-7.48,0-13.12,3.69-13.07,8.89-.05,4.57,3.17,7.08,10.61,8.84l10.74,2.47c12.4,2.86,18.48,8.75,18.48,18.3,0,12.24-11.31,20.9-27.64,20.9-15.18,0-25.13-6.73-27.33-18.7l12.72-1.93c1.59,6.64,6.64,10,14.52,10,8.63,0,14.22-4.09,14.22-9.33,0-4.23-3-7.13-9.55-8.58L1730,2127c-12.68-2.82-18.49-9.2-18.49-18.79,0-12,10.83-20,26.1-20,14.61,0,22.84,6.86,25.57,17.38Z" transform="translate(-1384.5 -1331.37)"/><path d="M1775.91,2123.2c0-21,12.46-35,31.51-35s31.51,14,31.51,35-12.45,34.85-31.51,34.85S1775.91,2144.11,1775.91,2123.2Zm49.73,0c0-12.94-5.81-23.94-18.17-23.94s-18.27,11-18.27,23.94S1795,2147,1807.47,2147,1825.64,2136.14,1825.64,2123.16Z" transform="translate(-1384.5 -1331.37)"/><path d="M1886,2099.66h-14.56v57h-13.21v-57h-10.43V2089.1h10.43v-7.84c0-12.67,9.38-18.92,20.07-18.92a31.31,31.31,0,0,1,11,1.81l-3.08,10.65a17.93,17.93,0,0,0-5.89-1c-6.43,0-8.89,3.26-8.89,9.25v6.07H1886Z" transform="translate(-1384.5 -1331.37)"/><path d="M1684.57,1617.46c0-19.78,11.09-32.37,27.15-32.37,12.41,0,16.22,7.52,18.37,10.79h.83V1565h9.77v83.7h-9.44V1639h-1.16c-2.15,3.44-6.29,11-18.54,11C1695.66,1650,1684.57,1637.4,1684.57,1617.46Zm46.52-.17c0-14.06-6.29-23.54-18.21-23.54-12.42,0-18.54,10.3-18.54,23.54,0,13.41,6.29,24,18.54,24C1724.63,1641.32,1731.09,1631.51,1731.09,1617.29Z" transform="translate(-1384.5 -1331.37)"/><path d="M1813.9,1586.15l-13.74,47.9h-.66l-13.4-47.9h-10.44l-13.57,48.06h-.66l-13.74-48.06h0v34.38q4.49,14.43,9.15,28.39h9.6l13.9-48.22h1l13.91,48.22h9.6l19.37-62.77Z" transform="translate(-1384.5 -1331.37)"/><path d="M1882.27,1960.78c-1.08-6.65-16.59-7.58-21.11-8.29-20.62-3.31-41.64-4.36-62.48-5.14-7.09-.26-14.2-.52-21.35-.69a50.37,50.37,0,0,1-15.59-23.25,25.48,25.48,0,0,1-.71-8.18c0-.82,0-1.62,0-2.42l-.07-9.92q-.06-10.59-.08-21.16v-.07c-.13-26.89-.18-55.25-.09-84.26,0-14.15.09-28.49.15-42.4v-.11c0-2.35,0-4.73,0-7.1,0-4.63,0-9.42.13-14.09.15-5.35,1.9-11.34,5.16-17.75,2.81-5.55,7-11.19,13-17.28l4.53-4.67-6.28,1.15a130.63,130.63,0,0,1-46,.15l-5.81-1,4,4.49a84.41,84.41,0,0,1,15.61,24.74c1,2.44,1,5.16,1,8,0,.72,0,1.41,0,2.1.06,3,.08,5.16.08,5.33,0,2.32.2,54.33.52,178.16l0,.61a29.21,29.21,0,0,1-5.51,17,59.82,59.82,0,0,1-10.78,11.5,619,619,0,0,0-79.77,5.74c-5.18.74-21.7,1.34-24.1,7.84s10.32,8.4,14,9.16c17.88,3.76,36.52,4.73,54.71,5.7,27.89,1.49,55.84,1.8,83.74,1.23,25.45-.51,51.09-1.46,76.34-4.88,5.18-.71,25.44-1.38,26.72-9.11a1.79,1.79,0,0,0,0-.56A2,2,0,0,0,1882.27,1960.78Zm-32.25,6.63c-18.28,2.16-36.72,3.14-55.12,3.76-42.6,1.45-85.65,1.26-128.11-2.89-7.39-.74-14.8-1.56-22.12-2.92-3.11-.58-10.18-1-12.6-3.37a3,3,0,0,0-.88-.65c-.56.35-.56-.19,0,0a2.92,2.92,0,0,0,.52-.43c.9-.93,3.54-1.38,4.75-1.75a105.14,105.14,0,0,1,15.53-3c23.69-3.39,47.84-4.82,72-5.27a54.55,54.55,0,0,1-9.87,4.62,194.34,194.34,0,0,1-20.39,5.83l10.49,0a33.11,33.11,0,0,0,11.12-1.85l0,0a59.14,59.14,0,0,0,16.1-8.66h0a61.25,61.25,0,0,0,5.35-4.6,64.88,64.88,0,0,0,7.74-8.92,30.27,30.27,0,0,0,3.13-5.31c3-6.31,3.2-14.15,3.2-14.15.49-16.48-.87-177.73-.61-184.23,0-.13,0-.84,0-1.79a38.08,38.08,0,0,0-1.33-9.87,39.22,39.22,0,0,0-6.25-12.9c-2.16-2.91-4.32-5.85-6.48-8.77a135.76,135.76,0,0,0,18,1.17,132.78,132.78,0,0,0,18-1.23,56.23,56.23,0,0,0-9.55,13.82,58.48,58.48,0,0,0-5.63,19.57q-.22,31.92-.31,63.81-.09,42.15.09,84.3l2,0-2,.09q0,10.56.09,21.17l.08,9.93c0,.76,0,1.51,0,2.29-.06,3.18-.11,6.44.93,9.61a54.91,54.91,0,0,0,13.13,21.73,57.13,57.13,0,0,0,5.14,4.56l1.73,1.3a58.85,58.85,0,0,0,11.71,6.41,33.89,33.89,0,0,0,12.9,2.49l11,0-.91-.2c-9.37-2-19.91-4.51-28.9-9.87,19.87.48,39.77,1.36,59.55,3.37,3.5.35,31.75,1.64,34.56,6.78C1875.36,1965.66,1853,1967.07,1850,1967.41Z" transform="translate(-1384.5 -1331.37)"/><path d="M1915,1542.85c-.34-1.57-.71-3.15-1.1-4.74-.28-1.23-.58-2.49-.91-3.72-.39-1.59-.82-3.15-1.23-4.74-4.88-18.15-11.23-35.86-16.13-51.14q-21.64-67.58-43.31-135.15c-.74-2.3-1.47-4.58-2.21-6.87-.36-1.12-.71-2.26-1.08-3.37a2.26,2.26,0,0,0-2.07-1.75H1659.33a2.26,2.26,0,0,0-2.07,1.75c-.37,1.11-.71,2.25-1.08,3.37-.73,2.29-1.47,4.57-2.2,6.87q-18.82,58.76-37.67,117.52-9.88,30.86-19.75,61.68c-.75,2.37-1.49,4.72-2.22,7.09-.48,1.59-.93,3.15-1.38,4.74-.35,1.23-.72,2.49-1,3.72-.43,1.59-.84,3.15-1.23,4.74a133.15,133.15,0,0,0-4.36,33.48c.23,23.2,8.29,46,26.87,58.3,20.45,13.56,43.93,22.66,66.18,31.95,15,6.25,29.35,14.59,44.56,20.31a78.91,78.91,0,0,0,28.66,4.71,80.29,80.29,0,0,0,25.68-3.32c13.4-4.14,26-11.61,38.82-17.41,22.92-10.38,46.4-19.41,68.56-31.78C1922.21,1618.66,1923.29,1580.77,1915,1542.85Zm-318.17-8.46c.41-1.59.87-3.18,1.32-4.74,5.14-17.73,12-35.15,17.41-52.09q14.45-45.15,28.92-90.31,6.71-20.94,13.42-41.85l2.78-8.65a1.14,1.14,0,0,1,.09-.26h184.51l2,6,6.42,19.57c.39,1.07.75,2.14,1.1,3.18.8,2.51,1.62,5,2.42,7.53v0q13.27,41.42,26.52,82.77c7.87,24.53,17.11,49.13,24.15,74.11.46,1.59.89,3.15,1.32,4.74.32,1.23.67,2.46,1,3.72H1595.85C1596.15,1536.88,1596.48,1535.62,1596.82,1534.39Zm267.69,110.19c-19.76,9.46-40,17.56-59.81,26.93-18.29,8.67-34.32,15.14-53.31,15.14-14.6-.5-28-4.67-42.16-11.47-16.72-8-33.83-14.88-50.61-22.68-16-7.44-34.41-14-48.4-25.71-16.29-13.58-20.74-38.16-19.32-59.37a161.32,161.32,0,0,1,3.78-24.57h316.64q.29,1.07.54,2.13c5.59,23.53,6.39,51.45-7.22,72.07C1895.23,1631.29,1878.68,1637.81,1864.51,1644.58Z" transform="translate(-1384.5 -1331.37)"/></svg>